<mxfile host="Electron" modified="2024-05-02T05:26:02.802Z" agent="Mozilla/5.0 (Windows NT 10.0; Win64; x64) AppleWebKit/537.36 (KHTML, like Gecko) draw.io/24.2.5 Chrome/120.0.6099.109 Electron/28.1.0 Safari/537.36" etag="OdDGoi5ae9vevBmlW9ZP" version="24.2.5" type="device">
  <diagram name="Page-1" id="o0ZqQBc5p8aBz4_Yj3NF">
    <mxGraphModel dx="1050" dy="717" grid="1" gridSize="10" guides="1" tooltips="1" connect="1" arrows="1" fold="1" page="1" pageScale="1" pageWidth="1100" pageHeight="850" math="0" shadow="0">
      <root>
        <mxCell id="0" />
        <mxCell id="1" parent="0" />
        <mxCell id="Qp0GUsCn_s2tmI3Qah0Y-1" value="Guild of Adventurers" style="rounded=1;whiteSpace=wrap;html=1;" vertex="1" parent="1">
          <mxGeometry x="120" y="120" width="200" height="40" as="geometry" />
        </mxCell>
        <mxCell id="Qp0GUsCn_s2tmI3Qah0Y-4" style="edgeStyle=orthogonalEdgeStyle;rounded=0;orthogonalLoop=1;jettySize=auto;html=1;exitX=0.5;exitY=0;exitDx=0;exitDy=0;entryX=0.5;entryY=1;entryDx=0;entryDy=0;" edge="1" parent="1" source="Qp0GUsCn_s2tmI3Qah0Y-2" target="Qp0GUsCn_s2tmI3Qah0Y-1">
          <mxGeometry relative="1" as="geometry" />
        </mxCell>
        <mxCell id="Qp0GUsCn_s2tmI3Qah0Y-2" value="Guild of Merchants" style="rounded=1;whiteSpace=wrap;html=1;" vertex="1" parent="1">
          <mxGeometry x="120" y="240" width="200" height="40" as="geometry" />
        </mxCell>
        <mxCell id="Qp0GUsCn_s2tmI3Qah0Y-3" value="Guild of Crafters" style="rounded=1;whiteSpace=wrap;html=1;" vertex="1" parent="1">
          <mxGeometry x="120" y="280" width="200" height="40" as="geometry" />
        </mxCell>
        <mxCell id="Qp0GUsCn_s2tmI3Qah0Y-6" style="edgeStyle=orthogonalEdgeStyle;rounded=0;orthogonalLoop=1;jettySize=auto;html=1;exitX=0;exitY=0.5;exitDx=0;exitDy=0;" edge="1" parent="1" source="Qp0GUsCn_s2tmI3Qah0Y-5" target="Qp0GUsCn_s2tmI3Qah0Y-1">
          <mxGeometry relative="1" as="geometry" />
        </mxCell>
        <mxCell id="Qp0GUsCn_s2tmI3Qah0Y-5" value="Localized Defense Forces" style="rounded=1;whiteSpace=wrap;html=1;" vertex="1" parent="1">
          <mxGeometry x="240" y="200" width="120" height="40" as="geometry" />
        </mxCell>
        <mxCell id="Qp0GUsCn_s2tmI3Qah0Y-8" style="edgeStyle=orthogonalEdgeStyle;rounded=0;orthogonalLoop=1;jettySize=auto;html=1;exitX=0;exitY=0.5;exitDx=0;exitDy=0;" edge="1" parent="1" source="Qp0GUsCn_s2tmI3Qah0Y-7" target="Qp0GUsCn_s2tmI3Qah0Y-1">
          <mxGeometry relative="1" as="geometry" />
        </mxCell>
        <mxCell id="Qp0GUsCn_s2tmI3Qah0Y-7" value="Guilded Mercenary Corps" style="rounded=1;whiteSpace=wrap;html=1;" vertex="1" parent="1">
          <mxGeometry x="240" y="160" width="120" height="40" as="geometry" />
        </mxCell>
        <mxCell id="Qp0GUsCn_s2tmI3Qah0Y-9" value="Guild of Rangers" style="rounded=1;whiteSpace=wrap;html=1;" vertex="1" parent="1">
          <mxGeometry x="120" y="320" width="200" height="40" as="geometry" />
        </mxCell>
        <mxCell id="Qp0GUsCn_s2tmI3Qah0Y-10" value="Guild of Wizards" style="rounded=1;whiteSpace=wrap;html=1;" vertex="1" parent="1">
          <mxGeometry x="120" y="360" width="200" height="40" as="geometry" />
        </mxCell>
        <mxCell id="Qp0GUsCn_s2tmI3Qah0Y-14" style="edgeStyle=orthogonalEdgeStyle;rounded=0;orthogonalLoop=1;jettySize=auto;html=1;exitX=1;exitY=0.5;exitDx=0;exitDy=0;" edge="1" parent="1" source="Qp0GUsCn_s2tmI3Qah0Y-12" target="Qp0GUsCn_s2tmI3Qah0Y-1">
          <mxGeometry relative="1" as="geometry" />
        </mxCell>
        <mxCell id="Qp0GUsCn_s2tmI3Qah0Y-12" value="Council of Mages" style="rounded=1;whiteSpace=wrap;html=1;" vertex="1" parent="1">
          <mxGeometry x="80" y="80" width="120" height="40" as="geometry" />
        </mxCell>
        <mxCell id="Qp0GUsCn_s2tmI3Qah0Y-13" style="edgeStyle=orthogonalEdgeStyle;rounded=0;orthogonalLoop=1;jettySize=auto;html=1;exitX=0;exitY=0.5;exitDx=0;exitDy=0;entryX=0.17;entryY=1.02;entryDx=0;entryDy=0;entryPerimeter=0;" edge="1" parent="1" source="Qp0GUsCn_s2tmI3Qah0Y-10" target="Qp0GUsCn_s2tmI3Qah0Y-12">
          <mxGeometry relative="1" as="geometry" />
        </mxCell>
        <mxCell id="Qp0GUsCn_s2tmI3Qah0Y-15" style="edgeStyle=orthogonalEdgeStyle;rounded=0;orthogonalLoop=1;jettySize=auto;html=1;exitX=1;exitY=0.5;exitDx=0;exitDy=0;entryX=0.85;entryY=1.04;entryDx=0;entryDy=0;entryPerimeter=0;fillColor=#00FF00;strokeColor=#00FF00;" edge="1" parent="1" source="Qp0GUsCn_s2tmI3Qah0Y-9" target="Qp0GUsCn_s2tmI3Qah0Y-5">
          <mxGeometry relative="1" as="geometry" />
        </mxCell>
        <mxCell id="Qp0GUsCn_s2tmI3Qah0Y-17" value="Guild of Adventurers" style="rounded=1;whiteSpace=wrap;html=1;" vertex="1" parent="1">
          <mxGeometry x="440" y="120" width="200" height="40" as="geometry" />
        </mxCell>
      </root>
    </mxGraphModel>
  </diagram>
</mxfile>
